<svg id="Layer_1" data-name="Layer 1" xmlns="http://www.w3.org/2000/svg" viewBox="0 0 353.56 32" width="353.56px" height="32px">
	<path fill="#000000" d="M42.17,1.89c-.68,0-1.06.25-1.06.93a1.1,1.1,0,0,0,1.06,1.12h6.21L42.54,23.25,34.84,2.51a1,1,0,0,0-.93-.62H28a1,1,0,0,0-.93.68L22.36,21.2,15.71,3.94h3.85a1.15,1.15,0,0,0,1.06-1.12c0-.68-.5-.93-1.06-.93h-18C1,1.89.5,2.13.5,2.82A1.15,1.15,0,0,0,1.56,3.94h1.8L14.22,32.31a1,1,0,0,0,.87.68h5.78a1.18,1.18,0,0,0,.87-.43c.06-.19.06-.25.12-.31L23.72,25c0-.19.06-.25,3-12.67l7.45,20a1.12,1.12,0,0,0,.93.68h6.09c.19,0,.31-.06.31-.12a1.26,1.26,0,0,0,.31-.56l.12-.5,1.55-5.09,1.63-4.83A1.22,1.22,0,0,1,47.5,22c1.22,4.92,4.93,11.47,16,11.47a15.79,15.79,0,0,0,7.64-1.86,14.65,14.65,0,0,0,2-1.18,15.87,15.87,0,0,0,5.15-5.59,1.24,1.24,0,0,0-.37-1.43,1,1,0,0,0-1.3.5,15,15,0,0,1-5.34,5.46A9,9,0,0,0,70,30a6.1,6.1,0,0,1-5.4-.12c-3.29-1.8-5.46-6.46-5.46-12.36H77.49c.5,0,.81-.43,1-.93a18.47,18.47,0,0,0-.81-6.89C75,2.32,68,1.45,63.2,1.45m-4,14c.31-9.63,3-11.67,4-12,.62.31,3,2.61,3.23,12Z" transform="translate(-0.5 -1.45)">
	</path>
	<path fill="#000000" d="M183.37,17.47c.5,0,.81-.43,1-.93a18.47,18.47,0,0,0-.81-6.89c-2.67-7.33-9.63-8.2-14.47-8.2A16.36,16.36,0,0,0,157.66,6a1.21,1.21,0,0,1-2-.44,6.35,6.35,0,0,0-5.8-4.11c-3.91,0-7.45,2.17-9.13,3.48v-2a1,1,0,0,0-1-1H124.94a1,1,0,0,0-1.06,1,1.09,1.09,0,0,0,1.06,1.06h3.85V27.49a3.42,3.42,0,0,1-3.39,3.42h0a3.42,3.42,0,0,1-3.46-3.42V11.39a8.19,8.19,0,0,0-2-5.84c-2.48-2.79-6.52-4.1-12.23-4.1-.87,0-.87,0-2.86.12-5.28.62-7.7,1.86-9.5,3.66a5.1,5.1,0,0,0-1.49,3.42,5.25,5.25,0,0,0,5.4,5.22,5.37,5.37,0,0,0,5.4-5.22,5,5,0,0,0-2.86-4.41,16.09,16.09,0,0,1,3.79-.62,4,4,0,0,1,2.73,1A7.22,7.22,0,0,1,110,8.9c.19,1.3.19,3.1.19,2.11v2L99.65,16.23c-3.35,1.37-7.82,3.66-7.82,9.31a8.71,8.71,0,0,0,2.48,5.4,8.4,8.4,0,0,0,6,2.48c5,.25,8.2-2.11,9.87-2.11v.62A1.13,1.13,0,0,0,111.2,33h34.23a1.06,1.06,0,0,0,1.06-1.12,1,1,0,0,0-1.06-1h-4.66V8.53a12.06,12.06,0,0,1,3.42-3.29A5.82,5.82,0,0,0,143.51,8a6.55,6.55,0,0,0,6.4,6.58,5.7,5.7,0,0,0,1.48-.2,1.21,1.21,0,0,1,1.53,1.29,15.58,15.58,0,0,0-.1,1.76c0,8.69,7.45,16,16.58,16A15.79,15.79,0,0,0,177,31.57a14.65,14.65,0,0,0,2-1.18,15.87,15.87,0,0,0,5.15-5.59,1.24,1.24,0,0,0-.37-1.43,1,1,0,0,0-1.3.5,15,15,0,0,1-5.34,5.46,9,9,0,0,0-1.24.62,6.1,6.1,0,0,1-5.4-.12C167.22,28,165,23.37,165,17.47h18.32ZM110.14,27.78a3.86,3.86,0,0,1-3.54.19,3.64,3.64,0,0,1-2.48-3.91,7,7,0,0,1,2.24-5.84,18.11,18.11,0,0,1,3.79-2.67Zm55-12.3c.31-9.63,3-11.67,4-12,.62.31,3,2.61,3.23,12Z" transform="translate(-0.5 -1.45)">
	</path>
	<path fill="#000000" d="M349.78,1.89H342v2h6.33L340.9,23.19,332.14,3.94h4v-2h-16l-2.76.05a70.55,70.55,0,0,1-8-.39q-1-.1-2.12-.1c-7.39,0-13,3.14-15.71,8.33a.82.82,0,0,1-1.53-.28,9.15,9.15,0,0,0-2.31-5.56c-1.74-1.68-4.16-2.48-7.82-2.48a14.31,14.31,0,0,0-9.63,3.73V2.82a1,1,0,0,0-1.12-.93h-14.1v2h3.66v24a3.12,3.12,0,0,1-3.12,3.12h0a3.12,3.12,0,0,1-3.12-3.12V16.17c0-5.22.06-9.63-2.55-12.23-1.74-1.68-4.16-2.48-7.82-2.48a14.31,14.31,0,0,0-9.63,3.73V2.82a1,1,0,0,0-1.12-.93h-14.1v2H221v24a3.12,3.12,0,0,1-3.1,3.12h-1.24a3.12,3.12,0,0,1-3.15-3.12v-25a1,1,0,0,0-1.06-.93H197.71v2h4.16V31h-3.42v2h36.8v-2h-2.67V8c.81-.5,3-2.11,5.65-2.11a2,2,0,0,1,1.61.62C241,7.91,241,11.14,241,14.49V30.95h-2.61v2H273v-2h-2.67V8c.81-.5,3-2.11,5.65-2.11a2,2,0,0,1,1.61.62c1.18,1.37,1.18,4.6,1.18,7.95V30.95h-2.61v2h17.2v-2h-3V26.09a.82.82,0,0,1,1.54-.39c2.77,4.87,8.23,7.73,15.46,7.73,10.62,0,17.51-6.21,17.51-16a18.52,18.52,0,0,0-.12-2l7.75,17.05a1,1,0,0,0,.93.5h5.47a.57.57,0,0,0,.43-.19,1.36,1.36,0,0,0,.25-.43L342,26.29v-.06l8.51-22.29h3.6v-2ZM307.37,31.45c-3,0-5.22-7.51-5.22-14,0-8.26,2.24-14,5.22-14s5.09,7.33,5.09,14C312.46,25.73,310.48,31.45,307.37,31.45Z" transform="translate(-0.5 -1.45)">
	</path>
</svg>
